Coordinates
version=1
nRows=22
nColumns=24
inDegrees=yes

Units are S.I. units (second, meters, Newtons, ...)
Angles are in degrees.

endheader
time	pelvis_tilt	pelvis_list	pelvis_rotation	pelvis_tx	pelvis_ty	pelvis_tz	hip_flexion_r	hip_adduction_r	hip_rotation_r	knee_angle_r	ankle_angle_r	subtalar_angle_r	mtp_angle_r	hip_flexion_l	hip_adduction_l	hip_rotation_l	knee_angle_l	ankle_angle_l	subtalar_angle_l	mtp_angle_l	lumbar_extension	lumbar_bending	lumbar_rotation
      1.15800000	     -6.02162951	      0.78780158	     -5.36144953	      0.22569679	      1.06397166	      0.29343377	     23.14514250	     -4.02826849	     -5.26224730	    -71.47835366	      3.55534392	     -5.69236980	      5.25532605	     16.36750419	      0.68119376	     -3.23858977	    -20.37845377	     13.89838293	      4.75696274	      3.86912411	     -4.74966069	     -0.79258277	      1.11950797
      1.16216667	     -5.99907228	      0.65463114	     -5.34417499	      0.23091690	      1.06524869	      0.29332469	     23.60422410	     -3.80846169	     -5.37058297	    -71.22134543	      3.82760553	     -5.32536488	      5.24594372	     15.75561193	      0.58384188	     -3.24059710	    -19.82473517	     13.91792881	      4.85060716	      3.86290006	     -4.79373589	     -0.65255590	      0.99309399
      1.16633333	     -5.96134110	      0.51568039	     -5.32362597	      0.23613058	      1.06652915	      0.29323687	     24.03083226	     -3.57679663	     -5.47844603	    -70.89549570	      4.09122316	     -4.94882446	      5.24562408	     15.12554987	      0.47946779	     -3.24458962	    -19.26317748	     13.90232811	      4.94109827	      3.85530936	     -4.86243892	     -0.51159253	      0.86949640
      1.17050000	     -5.93852296	      0.37714588	     -5.29579989	      0.24134382	      1.06772648	      0.29314186	     24.46142024	     -3.34346715	     -5.59185693	    -70.51434721	      4.35037034	     -4.56115455	      5.25572680	     14.51690393	      0.37451564	     -3.24714779	    -18.70938103	     13.88957320	      5.03411947	      3.84835951	     -4.91483087	     -0.36153081	      0.75554969
      1.17466667	     -5.90896821	      0.23712934	     -5.25890589	      0.24655858	      1.06889294	      0.29304387	     24.86942992	     -3.11002947	     -5.71380978	    -70.07359856	      4.60335017	     -4.17018896	      5.27503797	     13.90299171	      0.26902600	     -3.24395456	    -18.15612117	     13.87276165	      5.12621746	      3.84189647	     -4.97483845	     -0.21291515	      0.63256390
      1.17883333	     -5.87045386	      0.10535873	     -5.21620402	      0.25176864	      1.07001383	      0.29294472	     25.25644884	     -2.88653902	     -5.83772965	    -69.58162795	      4.85513442	     -3.77718383	      5.30216738	     13.28214091	      0.17377250	     -3.23906124	    -17.60283102	     13.85431170	      5.21521860	      3.83573798	     -5.04637345	     -0.07309943	      0.50746054
      1.18300000	     -5.83150646	     -0.02853074	     -5.16453553	      0.25697743	      1.07108258	      0.29284591	     25.62761509	     -2.66091397	     -5.96888243	    -69.03337182	      5.09700740	     -3.40655906	      5.33897750	     12.66453648	      0.07625950	     -3.22545757	    -17.05373875	     13.83218884	      5.30133168	      3.82939174	     -5.11989271	      0.07138290	      0.37059987
      1.18716667	     -5.81857101	     -0.17484567	     -5.10679948	      0.26218046	      1.07204742	      0.29274967	     26.01084456	     -2.41676111	     -6.10544175	    -68.42695949	      5.31629142	     -3.06887823	      5.37103576	     12.08713707	     -0.04039497	     -3.22251484	    -16.52848219	     13.80234368	      5.39688577	      3.82532715	     -5.16372103	      0.22667107	      0.26827047
      1.19133333	     -5.76723216	     -0.28694092	     -5.04245526	      0.26738425	      1.07298744	      0.29263210	     26.34889063	     -2.22298954	     -6.24611789	    -67.79174777	      5.55614909	     -2.72683202	      5.41879002	     11.46453005	     -0.11115050	     -3.19999736	    -15.98663066	     13.80710508	      5.47696512	      3.82157559	     -5.24722140	      0.35295220	      0.11294320
      1.19550000	     -5.76026947	     -0.41557841	     -4.97766506	      0.27259480	      1.07381982	      0.29254221	     26.71507254	     -1.99666992	     -6.38105070	    -67.09117858	      5.75679323	     -2.45359347	      5.45103936	     10.89989770	     -0.21065639	     -3.19818133	    -15.46601141	     13.76077491	      5.56588314	      3.81843499	     -5.27931716	      0.49862442	      0.01880235
      1.19966667	     -5.69859083	     -0.53102887	     -4.89658031	      0.27778210	      1.07464617	      0.29241105	     27.01288161	     -1.80523517	     -6.53541086	    -66.35660932	      5.97662663	     -2.16290598	      5.50589732	     10.27850922	     -0.28338267	     -3.15376358	    -14.94272509	     13.78463619	      5.63213226	      3.81741686	     -5.38245564	      0.62074631	     -0.15603436
      1.20383333	     -5.67331612	     -0.63866516	     -4.81920075	      0.28297052	      1.07534113	      0.29230684	     27.33976355	     -1.61157456	     -6.67727156	    -65.57787275	      6.17699800	     -1.93005170	      5.56145751	      9.70426590	     -0.35561638	     -3.12315619	    -14.43344354	     13.77384102	      5.69207824	      3.81655649	     -5.44088849	      0.73971096	     -0.29692037
      1.20800000	     -5.66478017	     -0.74835160	     -4.73894518	      0.28815485	      1.07593548	      0.29220736	     27.67058337	     -1.41430290	     -6.82077902	    -64.75144809	      6.36178588	     -1.73876826	      5.60133775	      9.16070455	     -0.43468043	     -3.10655404	    -13.94954251	     13.75528879	      5.76479967	      3.81640807	     -5.47765300	      0.85677700	     -0.40102145
      1.21216667	     -5.62090468	     -0.84727287	     -4.65136608	      0.29333987	      1.07651733	      0.29207790	     27.95192659	     -1.24106012	     -6.97305031	    -63.88896438	      6.53887821	     -1.57071179	      5.65756127	      8.57416185	     -0.49361487	     -3.05514276	    -13.45176036	     13.77881969	      5.81517843	      3.81898664	     -5.55839490	      0.97260865	     -0.56381351
      1.21633333	     -5.61587326	     -0.93861655	     -4.56184612	      0.29852217	      1.07695262	      0.29196816	     28.26342304	     -1.06955415	     -7.11803580	    -62.98645732	      6.71149468	     -1.44128049	      5.72465918	      8.04022149	     -0.55029903	     -2.99938606	    -12.97368744	     13.77734938	      5.85091494	      3.82337310	     -5.59675705	      1.07763751	     -0.72130600
      1.22050000	     -5.63170585	     -1.03095312	     -4.47648359	      0.30370874	      1.07727132	      0.29188216	     28.58459104	     -0.89259316	     -7.25926199	    -62.04088012	      6.87269857	     -1.34744415	      5.75559108	      7.54457216	     -0.61713623	     -2.98749500	    -12.53193950	     13.78267143	      5.92340964	      3.82587581	     -5.59826850	      1.17840597	     -0.79582347
      1.22466667	     -5.61397695	     -1.10729352	     -4.37985847	      0.30888191	      1.07756819	      0.29176120	     28.85889727	     -0.74670308	     -7.40804151	    -61.06316732	      7.02180045	     -1.26887995	      5.81573825	      7.00631962	     -0.65626966	     -2.91291495	    -12.06901002	     13.82132040	      5.94715141	      3.83397228	     -5.65360138	      1.27204632	     -0.97764655
      1.22883333	     -5.63618370	     -1.18552299	     -4.29012326	      0.31406182	      1.07772067	      0.29167211	     29.16136092	     -0.58995241	     -7.54755416	    -60.04125318	      7.17308040	     -1.21585618	      5.84727627	      6.53137635	     -0.70898166	     -2.88878018	    -11.65193074	     13.84181728	      6.00225080	      3.83897679	     -5.64942204	      1.35975421	     -1.06072552
      1.23300000	     -5.64359883	     -1.24153591	     -4.19621410	      0.31923894	      1.07780371	      0.29156754	     29.44149271	     -0.46563264	     -7.68560186	    -58.99633623	      7.30392167	     -1.18535477	      5.89409343	      6.03592787	     -0.73131549	     -2.81983505	    -11.22189643	     13.89878358	      6.01937514	      3.84852718	     -5.66726445	      1.43194243	     -1.21654197
      1.23716667	     -5.68110677	     -1.30617151	     -4.11054747	      0.32442178	      1.07777765	      0.29149751	     29.73449766	     -0.32149168	     -7.81076109	    -57.90062101	      7.45451419	     -1.16725455	      5.91935982	      5.58860498	     -0.77298212	     -2.79247040	    -10.82939944	     13.92823747	      6.07041865	      3.85425691	     -5.65096881	      1.50368667	     -1.29478151
      1.24133333	     -5.69616435	     -1.35025632	     -4.01657006	      0.32959452	      1.07769708	      0.29140865	     29.99550220	     -0.21048257	     -7.94029900	    -56.78007507	      7.56600736	     -1.17438481	      5.96868371	      5.11375942	     -0.78493691	     -2.70901095	    -10.42450067	     13.99975355	      6.06417190	      3.86793471	     -5.66471663	      1.56183009	     -1.46892033
      1.24550000	     -5.76760080	     -1.39173419	     -3.93511629	      0.33478737	      1.07743444	      0.29135388	     30.30279888	     -0.09079722	     -8.05057334	    -55.62308179	      7.71512167	     -1.16753318	      5.99135384	      4.71931969	     -0.80638636	     -2.68362249	    -10.06788421	     14.05439337	      6.10999490	      3.87529605	     -5.60262724	      1.61307827	     -1.53319794
